<svg width="605" height="102" viewBox="0 0 605 102" fill="none" xmlns="http://www.w3.org/2000/svg">
<path d="M72.4067 42.8605C72.4067 42.1928 72.3086 41.5938 72.1122 41.0636C71.9158 40.5137 71.5525 40.0031 71.0223 39.5318C70.492 39.0605 69.7262 38.5892 68.7246 38.1179C67.7427 37.6269 66.4466 37.1163 64.8363 36.5861C62.951 35.9577 61.1345 35.2507 59.3867 34.4652C57.6389 33.66 56.0777 32.7272 54.7031 31.6668C53.3284 30.5867 52.2385 29.3299 51.4333 27.8963C50.6282 26.4431 50.2256 24.7542 50.2256 22.8297C50.2256 20.9837 50.638 19.3243 51.4628 17.8514C52.2876 16.3589 53.4364 15.0923 54.9093 14.0515C56.4017 12.991 58.1495 12.1858 60.1526 11.636C62.1557 11.0665 64.3453 10.7817 66.7215 10.7817C69.8636 10.7817 72.6326 11.3316 75.0284 12.4313C77.4439 13.5114 79.3292 15.053 80.6842 17.0561C82.0588 19.0395 82.7462 21.3863 82.7462 24.0963H72.4657C72.4657 23.0162 72.2398 22.0638 71.7881 21.239C71.3561 20.4142 70.6982 19.7661 69.8145 19.2948C68.9308 18.8235 67.8213 18.5878 66.4859 18.5878C65.1898 18.5878 64.0999 18.7842 63.2161 19.177C62.3324 19.5697 61.6647 20.1 61.2131 20.7677C60.7614 21.4157 60.5356 22.1325 60.5356 22.918C60.5356 23.5661 60.7123 24.1552 61.0658 24.6855C61.4389 25.196 61.9593 25.6772 62.627 26.1289C63.3143 26.5805 64.1391 27.0126 65.1014 27.425C66.0833 27.8374 67.183 28.2399 68.4006 28.6327C70.6786 29.3593 72.7013 30.1743 74.4687 31.0776C76.2558 31.9614 77.7581 32.9727 78.9757 34.1117C80.2129 35.2311 81.1457 36.5076 81.7741 37.9411C82.4221 39.3747 82.7462 40.9948 82.7462 42.8015C82.7462 44.7261 82.3731 46.4346 81.6268 47.9271C80.8806 49.4196 79.8103 50.6862 78.416 51.727C77.0217 52.7482 75.3525 53.5239 73.4083 54.0541C71.4641 54.5844 69.2941 54.8495 66.8983 54.8495C64.6988 54.8495 62.5288 54.5746 60.3883 54.0247C58.2674 53.4552 56.3428 52.5911 54.6147 51.4325C52.8865 50.2542 51.5021 48.7519 50.4612 46.9255C49.4401 45.0796 48.9295 42.8899 48.9295 40.3566H59.2984C59.2984 41.6134 59.4653 42.6739 59.7991 43.538C60.133 44.402 60.6239 45.0992 61.272 45.6294C61.92 46.14 62.7154 46.5131 63.658 46.7488C64.6006 46.9648 65.6807 47.0728 66.8983 47.0728C68.214 47.0728 69.2745 46.8863 70.0796 46.5131C70.8848 46.1204 71.4739 45.6098 71.8471 44.9814C72.2202 44.3333 72.4067 43.6263 72.4067 42.8605ZM98.0933 22.3878V54.2603H88.1368V22.3878H98.0933ZM87.5477 14.1693C87.5477 12.7553 88.0583 11.5967 89.0794 10.6934C90.1006 9.79001 91.4262 9.33833 93.0561 9.33833C94.6861 9.33833 96.0117 9.79001 97.0328 10.6934C98.054 11.5967 98.5646 12.7553 98.5646 14.1693C98.5646 15.5832 98.054 16.7419 97.0328 17.6452C96.0117 18.5486 94.6861 19.0002 93.0561 19.0002C91.4262 19.0002 90.1006 18.5486 89.0794 17.6452C88.0583 16.7419 87.5477 15.5832 87.5477 14.1693ZM113.971 29.1924V54.2603H104.044V22.3878H113.352L113.971 29.1924ZM112.792 37.2342L110.465 37.2931C110.465 34.858 110.76 32.688 111.349 30.7831C111.938 28.8585 112.773 27.2286 113.853 25.8932C114.933 24.5578 116.219 23.5465 117.712 22.8591C119.224 22.1522 120.903 21.7987 122.749 21.7987C124.222 21.7987 125.567 22.0147 126.784 22.4467C128.022 22.8788 129.082 23.5759 129.966 24.5382C130.869 25.5004 131.557 26.7769 132.028 28.3676C132.519 29.9386 132.764 31.8828 132.764 34.2001V54.2603H122.778V34.1706C122.778 32.8942 122.602 31.9221 122.248 31.2544C121.895 30.5671 121.384 30.0957 120.716 29.8404C120.049 29.5851 119.234 29.4575 118.271 29.4575C117.25 29.4575 116.386 29.6539 115.679 30.0466C114.972 30.4394 114.403 30.9893 113.971 31.6962C113.558 32.3836 113.254 33.1985 113.057 34.1412C112.881 35.0838 112.792 36.1148 112.792 37.2342ZM151.735 47.1907C152.658 47.1907 153.443 47.0237 154.091 46.6899C154.759 46.3364 155.26 45.8454 155.593 45.217C155.947 44.569 156.114 43.7933 156.094 42.8899H165.432C165.452 45.2858 164.863 47.387 163.665 49.1937C162.486 50.9808 160.876 52.3751 158.834 53.3766C156.811 54.3585 154.523 54.8495 151.97 54.8495C149.476 54.8495 147.296 54.4469 145.431 53.6417C143.565 52.8169 142.004 51.6779 140.747 50.2247C139.51 48.7519 138.577 47.0335 137.949 45.0697C137.34 43.1059 137.036 40.9752 137.036 38.6776V38C137.036 35.7024 137.34 33.5717 137.949 31.6079C138.577 29.6244 139.51 27.9061 140.747 26.4529C142.004 24.98 143.555 23.841 145.401 23.0359C147.267 22.2111 149.437 21.7987 151.911 21.7987C154.562 21.7987 156.899 22.2994 158.922 23.301C160.964 24.3025 162.565 25.7557 163.724 27.6606C164.882 29.5655 165.452 31.873 165.432 34.583H156.094C156.114 33.6208 155.967 32.7567 155.652 31.9908C155.338 31.2249 154.847 30.6161 154.18 30.1645C153.531 29.6932 152.697 29.4575 151.676 29.4575C150.655 29.4575 149.83 29.6833 149.201 30.135C148.573 30.5867 148.092 31.2151 147.758 32.0203C147.444 32.8058 147.228 33.7091 147.11 34.7303C147.012 35.7515 146.963 36.8414 146.963 38V38.6776C146.963 39.8558 147.012 40.9654 147.11 42.0062C147.228 43.0274 147.454 43.9307 147.787 44.7163C148.121 45.4821 148.602 46.0909 149.231 46.5426C149.859 46.9746 150.694 47.1907 151.735 47.1907ZM168.437 38.6481V38.0295C168.437 35.6926 168.771 33.5422 169.438 31.5784C170.106 29.595 171.088 27.8766 172.384 26.4234C173.68 24.9702 175.281 23.841 177.186 23.0359C179.09 22.2111 181.29 21.7987 183.784 21.7987C186.298 21.7987 188.507 22.2111 190.412 23.0359C192.336 23.841 193.947 24.9702 195.243 26.4234C196.539 27.8766 197.521 29.595 198.188 31.5784C198.856 33.5422 199.19 35.6926 199.19 38.0295V38.6481C199.19 40.9654 198.856 43.1158 198.188 45.0992C197.521 47.063 196.539 48.7813 195.243 50.2542C193.947 51.7074 192.346 52.8366 190.441 53.6417C188.536 54.4469 186.337 54.8495 183.843 54.8495C181.349 54.8495 179.139 54.4469 177.215 53.6417C175.29 52.8366 173.68 51.7074 172.384 50.2542C171.088 48.7813 170.106 47.063 169.438 45.0992C168.771 43.1158 168.437 40.9654 168.437 38.6481ZM178.364 38.0295V38.6481C178.364 39.846 178.452 40.9654 178.629 42.0062C178.806 43.047 179.1 43.9602 179.513 44.7457C179.925 45.5116 180.485 46.1106 181.192 46.5426C181.899 46.9746 182.782 47.1907 183.843 47.1907C184.884 47.1907 185.748 46.9746 186.435 46.5426C187.142 46.1106 187.702 45.5116 188.114 44.7457C188.526 43.9602 188.821 43.047 188.998 42.0062C189.175 40.9654 189.263 39.846 189.263 38.6481V38.0295C189.263 36.8709 189.175 35.781 188.998 34.7598C188.821 33.719 188.526 32.8058 188.114 32.0203C187.702 31.2151 187.142 30.5867 186.435 30.135C185.728 29.6833 184.844 29.4575 183.784 29.4575C182.743 29.4575 181.869 29.6833 181.162 30.135C180.475 30.5867 179.925 31.2151 179.513 32.0203C179.1 32.8058 178.806 33.719 178.629 34.7598C178.452 35.781 178.364 36.8709 178.364 38.0295ZM248.619 46.3069V54.2603H225.76V46.3069H248.619ZM229.442 11.3709V54.2603H219.103V11.3709H229.442ZM245.673 28.397V36.0853H225.76V28.397H245.673ZM248.707 11.3709V19.3537H225.76V11.3709H248.707ZM252.861 11.3709H269.74C273.039 11.3709 275.906 11.8618 278.341 12.8437C280.776 13.8256 282.652 15.2788 283.967 17.2034C285.303 19.1279 285.97 21.5041 285.97 24.332C285.97 26.7867 285.587 28.8389 284.822 30.4885C284.056 32.1381 282.985 33.5029 281.611 34.583C280.256 35.6435 278.675 36.5174 276.868 37.2047L273.481 39.1194H259.312L259.253 31.1366H269.74C271.055 31.1366 272.145 30.9009 273.009 30.4296C273.873 29.9583 274.521 29.2906 274.953 28.4265C275.405 27.5428 275.631 26.4922 275.631 25.2746C275.631 24.0374 275.405 22.9769 274.953 22.0932C274.502 21.2095 273.834 20.532 272.95 20.0607C272.086 19.5894 271.016 19.3537 269.74 19.3537H263.2V54.2603H252.861V11.3709ZM276.338 54.2603L266.853 35.29L277.811 35.2311L287.414 53.8185V54.2603H276.338ZM309.33 39.7086H298.666V31.7257H309.33C310.783 31.7257 311.961 31.4802 312.865 30.9893C313.768 30.4983 314.426 29.8208 314.838 28.9567C315.27 28.073 315.486 27.0813 315.486 25.9816C315.486 24.8033 315.27 23.7134 314.838 22.7118C314.426 21.7103 313.768 20.9051 312.865 20.2964C311.961 19.6679 310.783 19.3537 309.33 19.3537H302.555V54.2603H292.215V11.3709H309.33C312.767 11.3709 315.722 11.9993 318.196 13.2561C320.69 14.513 322.605 16.2411 323.941 18.4406C325.276 20.6204 325.944 23.1144 325.944 25.9227C325.944 28.6916 325.276 31.1071 323.941 33.1691C322.605 35.2311 320.69 36.8414 318.196 38C315.722 39.1391 312.767 39.7086 309.33 39.7086Z" fill="#2063A0"/>
<path d="M364.709 20.3847L354.252 54.2603H343.147L358.906 11.3709H365.946L364.709 20.3847ZM373.37 54.2603L362.883 20.3847L361.528 11.3709H368.656L384.504 54.2603H373.37ZM372.957 38.2652V46.248H350.953V38.2652H372.957ZM395.521 29.1924V54.2603H385.594V22.3878H394.903L395.521 29.1924ZM394.343 37.2342L392.016 37.2931C392.016 34.858 392.31 32.688 392.9 30.7831C393.489 28.8585 394.323 27.2286 395.403 25.8932C396.483 24.5578 397.77 23.5465 399.262 22.8591C400.774 22.1522 402.453 21.7987 404.299 21.7987C405.772 21.7987 407.117 22.0147 408.335 22.4467C409.572 22.8788 410.633 23.5759 411.516 24.5382C412.42 25.5004 413.107 26.7769 413.578 28.3676C414.069 29.9386 414.315 31.8828 414.315 34.2001V54.2603H404.329V34.1706C404.329 32.8942 404.152 31.9221 403.799 31.2544C403.445 30.5671 402.935 30.0957 402.267 29.8404C401.599 29.5851 400.784 29.4575 399.822 29.4575C398.801 29.4575 397.937 29.6539 397.23 30.0466C396.523 30.4394 395.953 30.9893 395.521 31.6962C395.109 32.3836 394.804 33.1985 394.608 34.1412C394.431 35.0838 394.343 36.1148 394.343 37.2342ZM439.854 22.3878H448.868V53.0231C448.868 55.9689 448.19 58.4629 446.835 60.5052C445.48 62.5672 443.585 64.1285 441.15 65.1889C438.735 66.269 435.907 66.8091 432.667 66.8091C431.233 66.8091 429.77 66.6225 428.277 66.2494C426.785 65.8959 425.391 65.3657 424.095 64.6587C422.798 63.9517 421.709 63.0778 420.825 62.037L424.978 56.2045C425.783 57.1079 426.795 57.8737 428.012 58.5022C429.23 59.1502 430.663 59.4742 432.313 59.4742C433.747 59.4742 434.945 59.219 435.907 58.7084C436.889 58.1978 437.635 57.4515 438.146 56.4696C438.656 55.5074 438.911 54.3389 438.911 52.9642V29.9288L439.854 22.3878ZM418.674 38.707V38.0884C418.674 35.6729 418.969 33.4735 419.558 31.49C420.167 29.487 421.031 27.7686 422.15 26.3351C423.289 24.8818 424.664 23.7625 426.274 22.9769C427.885 22.1914 429.701 21.7987 431.724 21.7987C433.904 21.7987 435.691 22.2209 437.085 23.0653C438.499 23.8901 439.628 25.0488 440.473 26.5413C441.337 28.0337 442.004 29.7815 442.476 31.7846C442.967 33.7681 443.379 35.9086 443.713 38.2062V38.9427C443.379 41.1029 442.918 43.1452 442.328 45.0697C441.759 46.9746 441.013 48.6635 440.09 50.1364C439.167 51.6092 438.008 52.7679 436.614 53.6123C435.239 54.4371 433.59 54.8495 431.665 54.8495C429.662 54.8495 427.855 54.4469 426.245 53.6417C424.654 52.8366 423.289 51.7074 422.15 50.2542C421.031 48.801 420.167 47.0925 419.558 45.1287C418.969 43.1649 418.674 41.0243 418.674 38.707ZM428.601 38.0884V38.707C428.601 39.9049 428.71 41.0145 428.926 42.0357C429.161 43.0568 429.515 43.9602 429.986 44.7457C430.457 45.5116 431.037 46.1106 431.724 46.5426C432.431 46.9746 433.256 47.1907 434.198 47.1907C435.632 47.1907 436.791 46.8863 437.674 46.2775C438.558 45.6687 439.196 44.8046 439.589 43.6853C439.982 42.5659 440.149 41.2501 440.09 39.738V37.4109C440.129 36.1148 440.041 34.9758 439.825 33.9939C439.609 32.9923 439.265 32.1577 438.794 31.49C438.342 30.8223 437.733 30.3216 436.967 29.9877C436.221 29.6342 435.318 29.4575 434.257 29.4575C433.334 29.4575 432.519 29.6735 431.812 30.1056C431.105 30.5376 430.516 31.1464 430.045 31.9319C429.574 32.6978 429.21 33.6109 428.955 34.6714C428.719 35.7122 428.601 36.8512 428.601 38.0884ZM473.199 46.5131V22.3878H483.156V54.2603H473.848L473.199 46.5131ZM474.142 40.0326L476.734 39.9737C476.734 42.1142 476.479 44.0977 475.968 45.924C475.458 47.7307 474.702 49.3017 473.7 50.6371C472.718 51.9725 471.501 53.0133 470.048 53.7596C468.614 54.4862 466.955 54.8495 465.069 54.8495C463.498 54.8495 462.055 54.6335 460.739 54.2014C459.443 53.7498 458.324 53.0526 457.381 52.11C456.438 51.1477 455.702 49.9203 455.172 48.4278C454.661 46.9157 454.406 45.109 454.406 43.0077V22.3878H464.333V43.0667C464.333 43.7736 464.421 44.3824 464.598 44.893C464.775 45.4036 465.03 45.8356 465.364 46.1891C465.698 46.523 466.11 46.7783 466.601 46.955C467.112 47.1121 467.691 47.1907 468.339 47.1907C469.832 47.1907 471 46.8764 471.844 46.248C472.689 45.6196 473.278 44.7654 473.612 43.6853C473.965 42.6052 474.142 41.3876 474.142 40.0326ZM499.122 9.0143V54.2603H489.165V9.0143H499.122ZM521.804 46.248V33.1102C521.804 32.2068 521.676 31.4311 521.421 30.7831C521.165 30.135 520.763 29.6342 520.213 29.2808C519.663 28.9076 518.927 28.7211 518.004 28.7211C517.257 28.7211 516.619 28.8487 516.089 29.104C515.559 29.3593 515.156 29.7423 514.881 30.2528C514.606 30.7634 514.469 31.4115 514.469 32.197H504.542C504.542 30.7242 504.866 29.3593 505.514 28.1025C506.182 26.826 507.124 25.7165 508.342 24.7738C509.579 23.8312 511.052 23.1046 512.76 22.594C514.488 22.0638 516.413 21.7987 518.534 21.7987C521.067 21.7987 523.326 22.2209 525.309 23.0653C527.312 23.9098 528.893 25.1764 530.052 26.8653C531.21 28.5345 531.79 30.6358 531.79 33.1691V46.2186C531.79 48.3002 531.907 49.8811 532.143 50.9612C532.379 52.0216 532.713 52.9544 533.145 53.7596V54.2603H523.188C522.717 53.2784 522.363 52.0805 522.128 50.6666C521.912 49.233 521.804 47.7602 521.804 46.248ZM523.011 34.7892L523.07 40.0915H518.681C517.758 40.0915 516.973 40.2191 516.325 40.4744C515.696 40.7297 515.186 41.0832 514.793 41.5349C514.42 41.9669 514.145 42.4579 513.968 43.0077C513.811 43.5576 513.732 44.1369 513.732 44.7457C513.732 45.3349 513.87 45.8651 514.145 46.3364C514.439 46.7881 514.832 47.1416 515.323 47.3969C515.814 47.6521 516.364 47.7798 516.973 47.7798C518.072 47.7798 519.005 47.5736 519.771 47.1612C520.557 46.7292 521.156 46.2087 521.568 45.6C521.98 44.9912 522.187 44.4217 522.187 43.8915L524.366 47.9565C523.974 48.7421 523.522 49.5374 523.011 50.3426C522.52 51.1477 521.902 51.894 521.156 52.5813C520.429 53.249 519.535 53.7989 518.475 54.2309C517.415 54.6433 516.128 54.8495 514.616 54.8495C512.652 54.8495 510.846 54.4469 509.196 53.6417C507.566 52.8366 506.26 51.7172 505.278 50.2836C504.296 48.8304 503.805 47.1612 503.805 45.2759C503.805 43.6263 504.1 42.1535 504.689 40.8574C505.298 39.5613 506.211 38.4615 507.429 37.5582C508.646 36.6548 510.198 35.9675 512.083 35.4962C513.968 35.0249 516.187 34.7892 518.74 34.7892H523.011ZM547.313 30.2823V54.2603H537.386V22.3878H546.665L547.313 30.2823ZM556.74 22.1522L556.563 31.3722C556.17 31.3329 555.64 31.2838 554.972 31.2249C554.305 31.166 553.745 31.1366 553.293 31.1366C552.135 31.1366 551.133 31.274 550.289 31.549C549.464 31.8042 548.776 32.197 548.227 32.7272C547.696 33.2378 547.304 33.8859 547.048 34.6714C546.813 35.4569 546.705 36.3701 546.724 37.4109L544.927 36.2326C544.927 34.0921 545.134 32.1479 545.546 30.4001C545.978 28.6327 546.587 27.1108 547.372 25.8343C548.158 24.5382 549.11 23.5465 550.23 22.8591C551.349 22.1522 552.606 21.7987 554 21.7987C554.491 21.7987 554.972 21.8281 555.444 21.887C555.935 21.946 556.367 22.0343 556.74 22.1522Z" fill="#101840" fill-opacity="0.87"/>
<path d="M210.96 76.6471H213.893L219.405 91.3495L224.903 76.6471H227.836L220.557 95.7091H218.226L210.96 76.6471ZM209.625 76.6471H212.414L212.898 89.3726V95.7091H209.625V76.6471ZM226.383 76.6471H229.184V95.7091H225.898V89.3726L226.383 76.6471ZM240.758 92.8682V86.1127C240.758 85.6065 240.666 85.1701 240.483 84.8035C240.3 84.4369 240.02 84.1532 239.645 83.9525C239.278 83.7518 238.816 83.6514 238.257 83.6514C237.742 83.6514 237.297 83.7387 236.922 83.9132C236.546 84.0878 236.254 84.3234 236.045 84.6202C235.835 84.9169 235.73 85.253 235.73 85.6283H232.588C232.588 85.0697 232.724 84.5285 232.994 84.0049C233.265 83.4812 233.658 83.0142 234.172 82.604C234.687 82.1938 235.303 81.8709 236.018 81.6352C236.734 81.3996 237.537 81.2817 238.427 81.2817C239.492 81.2817 240.435 81.4606 241.255 81.8185C242.084 82.1763 242.735 82.7175 243.206 83.4419C243.686 84.1576 243.926 85.0566 243.926 86.1389V92.4361C243.926 93.082 243.97 93.6624 244.057 94.1774C244.153 94.6836 244.288 95.1244 244.463 95.4997V95.7091H241.229C241.081 95.3687 240.963 94.9367 240.876 94.413C240.797 93.8806 240.758 93.3657 240.758 92.8682ZM241.216 87.0946L241.242 89.0453H238.977C238.392 89.0453 237.878 89.102 237.432 89.2155C236.987 89.3202 236.616 89.4773 236.32 89.6868C236.023 89.8963 235.8 90.1494 235.652 90.4461C235.503 90.7429 235.429 91.0789 235.429 91.4542C235.429 91.8295 235.517 92.1743 235.691 92.4885C235.866 92.794 236.119 93.034 236.45 93.2086C236.791 93.3831 237.201 93.4704 237.681 93.4704C238.327 93.4704 238.89 93.3395 239.37 93.0776C239.859 92.8071 240.243 92.4798 240.522 92.0957C240.801 91.703 240.95 91.332 240.967 90.9829L241.988 92.3838C241.884 92.7416 241.705 93.1256 241.452 93.5359C241.199 93.9461 240.867 94.3388 240.457 94.7141C240.055 95.0807 239.571 95.3818 239.003 95.6175C238.445 95.8531 237.799 95.971 237.066 95.971C236.141 95.971 235.316 95.7877 234.591 95.4211C233.867 95.0458 233.3 94.5439 232.889 93.9155C232.479 93.2784 232.274 92.5583 232.274 91.7553C232.274 91.0047 232.414 90.3414 232.693 89.7654C232.981 89.1806 233.4 88.6918 233.95 88.299C234.509 87.9063 235.189 87.6095 235.992 87.4088C236.795 87.1993 237.712 87.0946 238.742 87.0946H241.216ZM253.719 81.5436V83.8478H245.733V81.5436H253.719ZM248.037 78.0742H251.192V91.7946C251.192 92.231 251.253 92.5671 251.375 92.8027C251.506 93.0296 251.685 93.1824 251.912 93.2609C252.139 93.3395 252.405 93.3788 252.711 93.3788C252.929 93.3788 253.138 93.3657 253.339 93.3395C253.54 93.3133 253.701 93.2871 253.824 93.2609L253.837 95.6699C253.575 95.7484 253.269 95.8182 252.92 95.8793C252.58 95.9404 252.187 95.971 251.742 95.971C251.018 95.971 250.376 95.8444 249.817 95.5913C249.259 95.3295 248.822 94.9062 248.508 94.3214C248.194 93.7366 248.037 92.9598 248.037 91.991V78.0742ZM262.399 95.971C261.352 95.971 260.405 95.8008 259.558 95.4604C258.72 95.1113 258.004 94.6269 257.411 94.0072C256.826 93.3875 256.377 92.6587 256.062 91.8208C255.748 90.9829 255.591 90.0796 255.591 89.1108V88.5871C255.591 87.4786 255.752 86.4749 256.075 85.5759C256.398 84.6769 256.848 83.9089 257.424 83.2717C258 82.6258 258.681 82.1327 259.466 81.7923C260.252 81.4519 261.103 81.2817 262.019 81.2817C263.032 81.2817 263.918 81.4519 264.677 81.7923C265.436 82.1327 266.065 82.6127 266.562 83.2324C267.068 83.8434 267.444 84.5722 267.688 85.4188C267.941 86.2654 268.068 87.1993 268.068 88.2205V89.569H257.123V87.3041H264.952V87.0553C264.934 86.488 264.821 85.9556 264.611 85.4581C264.411 84.9606 264.101 84.5591 263.682 84.2536C263.263 83.9481 262.704 83.7954 262.006 83.7954C261.482 83.7954 261.015 83.9089 260.605 84.1358C260.204 84.354 259.868 84.6726 259.597 85.0915C259.327 85.5104 259.117 86.0167 258.969 86.6102C258.829 87.195 258.759 87.8539 258.759 88.5871V89.1108C258.759 89.7304 258.842 90.3065 259.008 90.8389C259.183 91.3626 259.436 91.8208 259.767 92.2136C260.099 92.6063 260.501 92.9162 260.972 93.1431C261.443 93.3613 261.98 93.4704 262.582 93.4704C263.342 93.4704 264.018 93.3177 264.611 93.0122C265.205 92.7067 265.72 92.2747 266.156 91.7161L267.819 93.3264C267.514 93.7715 267.116 94.1992 266.628 94.6094C266.139 95.0109 265.541 95.3382 264.834 95.5913C264.136 95.8444 263.324 95.971 262.399 95.971ZM273.697 84.2405V95.7091H270.542V81.5436H273.553L273.697 84.2405ZM278.031 81.4519L278.005 84.3845C277.813 84.3496 277.603 84.3234 277.376 84.306C277.158 84.2885 276.94 84.2798 276.722 84.2798C276.18 84.2798 275.705 84.3583 275.295 84.5155C274.884 84.6638 274.54 84.882 274.26 85.1701C273.99 85.4494 273.78 85.7897 273.632 86.1912C273.483 86.5927 273.396 87.0422 273.37 87.5397L272.65 87.5921C272.65 86.7018 272.737 85.877 272.912 85.1177C273.086 84.3583 273.348 83.6907 273.697 83.1146C274.055 82.5386 274.5 82.0891 275.033 81.7661C275.574 81.4432 276.198 81.2817 276.905 81.2817C277.097 81.2817 277.302 81.2992 277.52 81.3341C277.747 81.369 277.917 81.4083 278.031 81.4519ZM283.385 81.5436V95.7091H280.217V81.5436H283.385ZM280.008 77.8254C280.008 77.3454 280.165 76.9483 280.479 76.6341C280.802 76.3111 281.247 76.1496 281.814 76.1496C282.373 76.1496 282.814 76.3111 283.137 76.6341C283.46 76.9483 283.621 77.3454 283.621 77.8254C283.621 78.2967 283.46 78.6895 283.137 79.0037C282.814 79.3179 282.373 79.475 281.814 79.475C281.247 79.475 280.802 79.3179 280.479 79.0037C280.165 78.6895 280.008 78.2967 280.008 77.8254ZM294.828 92.8682V86.1127C294.828 85.6065 294.736 85.1701 294.553 84.8035C294.37 84.4369 294.09 84.1532 293.715 83.9525C293.348 83.7518 292.886 83.6514 292.327 83.6514C291.812 83.6514 291.367 83.7387 290.992 83.9132C290.617 84.0878 290.324 84.3234 290.115 84.6202C289.905 84.9169 289.8 85.253 289.8 85.6283H286.658C286.658 85.0697 286.794 84.5285 287.064 84.0049C287.335 83.4812 287.728 83.0142 288.243 82.604C288.757 82.1938 289.373 81.8709 290.089 81.6352C290.804 81.3996 291.607 81.2817 292.497 81.2817C293.562 81.2817 294.505 81.4606 295.325 81.8185C296.154 82.1763 296.805 82.7175 297.276 83.4419C297.756 84.1576 297.996 85.0566 297.996 86.1389V92.4361C297.996 93.082 298.04 93.6624 298.127 94.1774C298.223 94.6836 298.358 95.1244 298.533 95.4997V95.7091H295.299C295.151 95.3687 295.033 94.9367 294.946 94.413C294.867 93.8806 294.828 93.3657 294.828 92.8682ZM295.286 87.0946L295.312 89.0453H293.047C292.463 89.0453 291.948 89.102 291.502 89.2155C291.057 89.3202 290.686 89.4773 290.39 89.6868C290.093 89.8963 289.87 90.1494 289.722 90.4461C289.574 90.7429 289.499 91.0789 289.499 91.4542C289.499 91.8295 289.587 92.1743 289.761 92.4885C289.936 92.794 290.189 93.034 290.521 93.2086C290.861 93.3831 291.271 93.4704 291.751 93.4704C292.397 93.4704 292.96 93.3395 293.44 93.0776C293.929 92.8071 294.313 92.4798 294.592 92.0957C294.871 91.703 295.02 91.332 295.037 90.9829L296.058 92.3838C295.954 92.7416 295.775 93.1256 295.522 93.5359C295.269 93.9461 294.937 94.3388 294.527 94.7141C294.125 95.0807 293.641 95.3818 293.074 95.6175C292.515 95.8531 291.869 95.971 291.136 95.971C290.211 95.971 289.386 95.7877 288.661 95.4211C287.937 95.0458 287.37 94.5439 286.96 93.9155C286.549 93.2784 286.344 92.5583 286.344 91.7553C286.344 91.0047 286.484 90.3414 286.763 89.7654C287.051 89.1806 287.47 88.6918 288.02 88.299C288.579 87.9063 289.259 87.6095 290.062 87.4088C290.865 87.1993 291.782 87.0946 292.812 87.0946H295.286ZM304.673 75.5998V95.7091H301.505V75.5998H304.673ZM320.658 95.7091H316.587L316.613 93.1038H320.658C321.837 93.1038 322.823 92.8463 323.617 92.3314C324.42 91.8164 325.022 91.0789 325.424 90.1188C325.834 89.1588 326.039 88.0154 326.039 86.6887V85.6545C326.039 84.6246 325.921 83.7125 325.686 82.9182C325.459 82.124 325.118 81.4563 324.665 80.9151C324.219 80.374 323.67 79.9638 323.015 79.6845C322.369 79.4052 321.623 79.2656 320.776 79.2656H316.508V76.6471H320.776C322.042 76.6471 323.198 76.861 324.246 77.2887C325.293 77.7076 326.196 78.3142 326.956 79.1084C327.724 79.9027 328.313 80.8541 328.723 81.9625C329.133 83.071 329.338 84.3103 329.338 85.6806V86.6887C329.338 88.059 329.133 89.2984 328.723 90.4069C328.313 91.5153 327.724 92.4667 326.956 93.2609C326.188 94.0464 325.271 94.653 324.206 95.0807C323.15 95.4997 321.968 95.7091 320.658 95.7091ZM318.407 76.6471V95.7091H315.12V76.6471H318.407ZM338.568 95.971C337.521 95.971 336.574 95.8008 335.727 95.4604C334.889 95.1113 334.174 94.6269 333.58 94.0072C332.995 93.3875 332.546 92.6587 332.232 91.8208C331.918 90.9829 331.76 90.0796 331.76 89.1108V88.5871C331.76 87.4786 331.922 86.4749 332.245 85.5759C332.568 84.6769 333.017 83.9089 333.593 83.2717C334.169 82.6258 334.85 82.1327 335.636 81.7923C336.421 81.4519 337.272 81.2817 338.189 81.2817C339.201 81.2817 340.087 81.4519 340.846 81.7923C341.606 82.1327 342.234 82.6127 342.732 83.2324C343.238 83.8434 343.613 84.5722 343.857 85.4188C344.111 86.2654 344.237 87.1993 344.237 88.2205V89.569H333.292V87.3041H341.121V87.0553C341.104 86.488 340.99 85.9556 340.781 85.4581C340.58 84.9606 340.27 84.5591 339.851 84.2536C339.432 83.9481 338.874 83.7954 338.176 83.7954C337.652 83.7954 337.185 83.9089 336.775 84.1358C336.373 84.354 336.037 84.6726 335.767 85.0915C335.496 85.5104 335.287 86.0167 335.138 86.6102C334.999 87.195 334.929 87.8539 334.929 88.5871V89.1108C334.929 89.7304 335.012 90.3065 335.177 90.8389C335.352 91.3626 335.605 91.8208 335.937 92.2136C336.268 92.6063 336.67 92.9162 337.141 93.1431C337.613 93.3613 338.149 93.4704 338.752 93.4704C339.511 93.4704 340.187 93.3177 340.781 93.0122C341.374 92.7067 341.889 92.2747 342.326 91.7161L343.988 93.3264C343.683 93.7715 343.286 94.1992 342.797 94.6094C342.308 95.0109 341.71 95.3382 341.003 95.5913C340.305 95.8444 339.493 95.971 338.568 95.971ZM354.645 91.8732C354.645 91.559 354.567 91.2753 354.41 91.0222C354.253 90.7604 353.951 90.5247 353.506 90.3152C353.07 90.1057 352.424 89.9137 351.569 89.7392C350.818 89.5733 350.129 89.377 349.5 89.15C348.88 88.9144 348.348 88.6307 347.903 88.299C347.458 87.9674 347.113 87.5746 346.869 87.1208C346.624 86.6669 346.502 86.1432 346.502 85.5497C346.502 84.9737 346.629 84.4282 346.882 83.9132C347.135 83.3983 347.497 82.9444 347.968 82.5516C348.44 82.1589 349.011 81.849 349.683 81.6221C350.364 81.3952 351.124 81.2817 351.961 81.2817C353.148 81.2817 354.165 81.4825 355.012 81.884C355.867 82.2767 356.522 82.8135 356.976 83.4943C357.43 84.1663 357.656 84.9257 357.656 85.7723H354.501C354.501 85.397 354.405 85.0479 354.213 84.7249C354.03 84.3933 353.751 84.1271 353.375 83.9263C353 83.7168 352.529 83.6121 351.961 83.6121C351.42 83.6121 350.971 83.6994 350.613 83.8739C350.264 84.0398 350.002 84.258 349.827 84.5285C349.662 84.7991 349.579 85.0959 349.579 85.4188C349.579 85.6545 349.622 85.8683 349.71 86.0603C349.806 86.2436 349.963 86.4138 350.181 86.5709C350.399 86.7193 350.696 86.8589 351.071 86.9898C351.455 87.1208 351.935 87.2473 352.511 87.3695C353.594 87.5964 354.523 87.8888 355.3 88.2467C356.085 88.5958 356.688 89.0497 357.107 89.6083C357.526 90.1581 357.735 90.8564 357.735 91.703C357.735 92.3314 357.6 92.9074 357.329 93.4311C357.067 93.9461 356.683 94.3956 356.177 94.7796C355.671 95.1549 355.064 95.4473 354.357 95.6568C353.659 95.8662 352.874 95.971 352.001 95.971C350.718 95.971 349.631 95.744 348.741 95.2902C347.851 94.8276 347.174 94.2385 346.712 93.5228C346.258 92.7983 346.031 92.0477 346.031 91.2709H349.081C349.116 91.8557 349.278 92.3227 349.566 92.6718C349.862 93.0122 350.229 93.2609 350.665 93.418C351.11 93.5664 351.569 93.6406 352.04 93.6406C352.607 93.6406 353.083 93.5664 353.467 93.418C353.851 93.2609 354.143 93.0515 354.344 92.7896C354.545 92.519 354.645 92.2136 354.645 91.8732ZM363.875 81.5436V95.7091H360.707V81.5436H363.875ZM360.497 77.8254C360.497 77.3454 360.655 76.9483 360.969 76.6341C361.292 76.3111 361.737 76.1496 362.304 76.1496C362.863 76.1496 363.303 76.3111 363.626 76.6341C363.949 76.9483 364.111 77.3454 364.111 77.8254C364.111 78.2967 363.949 78.6895 363.626 79.0037C363.303 79.3179 362.863 79.475 362.304 79.475C361.737 79.475 361.292 79.3179 360.969 79.0037C360.655 78.6895 360.497 78.2967 360.497 77.8254ZM376.404 81.5436H379.271V95.3164C379.271 96.5907 379.001 97.6729 378.46 98.5632C377.919 99.4535 377.164 100.13 376.195 100.592C375.226 101.064 374.104 101.299 372.83 101.299C372.289 101.299 371.687 101.221 371.023 101.064C370.369 100.907 369.732 100.654 369.112 100.304C368.501 99.964 367.99 99.5146 367.58 98.956L369.06 97.0969C369.566 97.6991 370.124 98.1399 370.735 98.4192C371.346 98.6985 371.988 98.8381 372.66 98.8381C373.384 98.8381 374 98.7028 374.506 98.4323C375.021 98.1704 375.418 97.782 375.697 97.2671C375.977 96.7521 376.116 96.1237 376.116 95.3818V84.7511L376.404 81.5436ZM366.782 88.7835V88.5085C366.782 87.435 366.913 86.4574 367.174 85.5759C367.436 84.6857 367.812 83.9219 368.3 83.2848C368.789 82.6389 369.383 82.1458 370.081 81.8054C370.779 81.4563 371.569 81.2817 372.45 81.2817C373.367 81.2817 374.148 81.4476 374.794 81.7792C375.449 82.1109 375.994 82.5866 376.43 83.2063C376.867 83.8172 377.207 84.5504 377.452 85.4057C377.705 86.2523 377.892 87.195 378.015 88.2336V89.1108C377.901 90.1232 377.709 91.0484 377.439 91.8863C377.168 92.7242 376.81 93.4486 376.365 94.0595C375.92 94.6705 375.37 95.1418 374.715 95.4735C374.07 95.8051 373.306 95.971 372.424 95.971C371.56 95.971 370.779 95.7921 370.081 95.4342C369.391 95.0764 368.798 94.5745 368.3 93.9286C367.812 93.2827 367.436 92.5234 367.174 91.6506C366.913 90.7691 366.782 89.8134 366.782 88.7835ZM369.937 88.5085V88.7835C369.937 89.4293 369.998 90.0316 370.12 90.5902C370.251 91.1487 370.447 91.6419 370.709 92.0696C370.98 92.4885 371.32 92.8202 371.73 93.0645C372.149 93.3002 372.642 93.418 373.21 93.418C373.952 93.418 374.558 93.2609 375.03 92.9467C375.51 92.6325 375.876 92.2092 376.129 91.6768C376.391 91.1357 376.574 90.5334 376.679 89.8701V87.5004C376.627 86.9855 376.518 86.5054 376.352 86.0603C376.195 85.6152 375.981 85.2268 375.71 84.8951C375.44 84.5547 375.099 84.2929 374.689 84.1096C374.279 83.9176 373.795 83.8216 373.236 83.8216C372.669 83.8216 372.176 83.9438 371.757 84.1882C371.338 84.4325 370.993 84.7686 370.722 85.1962C370.46 85.6239 370.264 86.1214 370.133 86.6887C370.002 87.2561 369.937 87.8626 369.937 88.5085ZM385.673 84.5678V95.7091H382.518V81.5436H385.49L385.673 84.5678ZM385.11 88.1027L384.089 88.0896C384.098 87.0859 384.238 86.165 384.508 85.3272C384.788 84.4893 385.172 83.7692 385.66 83.167C386.158 82.5647 386.751 82.1022 387.441 81.7792C388.13 81.4476 388.898 81.2817 389.745 81.2817C390.426 81.2817 391.041 81.3777 391.591 81.5697C392.15 81.753 392.625 82.0542 393.018 82.4731C393.42 82.892 393.725 83.4375 393.934 84.1096C394.144 84.7729 394.249 85.589 394.249 86.5578V95.7091H391.08V86.5447C391.08 85.8639 390.98 85.3272 390.779 84.9344C390.587 84.5329 390.304 84.2492 389.928 84.0834C389.562 83.9089 389.104 83.8216 388.554 83.8216C388.013 83.8216 387.528 83.935 387.1 84.162C386.673 84.3889 386.311 84.6987 386.014 85.0915C385.726 85.4843 385.503 85.9381 385.346 86.4531C385.189 86.968 385.11 87.5179 385.11 88.1027Z" fill="#3D4752"/>
</svg>
