<svg width="24" height="36" viewBox="0 0 24 36" fill="none" xmlns="http://www.w3.org/2000/svg">
<path d="M6.576 35.074C9.75273 35.074 12.3309 32.4413 12.3309 29.1973V23.3206H6.576C3.39927 23.3206 0.82106 25.9534 0.82106 29.1973C0.82106 32.4413 3.39927 35.074 6.576 35.074Z" fill="#0ACF83"/>
<path d="M0.82106 17.8214C0.82106 14.5775 3.39927 11.9447 6.576 11.9447H12.3309V23.6981H6.576C3.39927 23.6981 0.82106 21.0654 0.82106 17.8214Z" fill="#A259FF"/>
<path d="M0.821655 5.87672C0.821655 2.63277 3.39987 0 6.5766 0H12.3315V11.7534H6.5766C3.39987 11.7534 0.821655 9.12067 0.821655 5.87672Z" fill="#F24E1E"/>
<path d="M12.1969 0H17.9519C21.1286 0 23.7068 2.63277 23.7068 5.87672C23.7068 9.12067 21.1286 11.7534 17.9519 11.7534H12.1969V0Z" fill="#FF7262"/>
<path d="M23.7068 17.8214C23.7068 21.0654 21.1286 23.6981 17.9519 23.6981C14.7752 23.6981 12.1969 21.0654 12.1969 17.8214C12.1969 14.5775 14.7752 11.9447 17.9519 11.9447C21.1286 11.9447 23.7068 14.5775 23.7068 17.8214Z" fill="#1ABCFE"/>
</svg>
