<svg width="169" height="43" viewBox="0 0 169 43" fill="none" xmlns="http://www.w3.org/2000/svg">
<g filter="url(#filter0_d_185_94693)">
<path d="M14.5472 34.692L24.327 24.3851L18.4106 11.8183L5.02611 11.8541L14.5472 34.692Z" fill="#0C4271"/>
<path d="M4.96848 10.8852H35.8256L44.549 0.566345L12.92 0.657897L4.96848 10.8852Z" fill="#3872A9"/>
<path d="M56.2603 23.9097L45.8301 0.592285L36.484 11.5418L42.3328 23.9057L56.2603 23.9097Z" fill="#2063A0"/>
<path d="M25.1327 24.8447L15.8443 34.6921L48.4382 34.6941L56.2603 24.8447H25.1327Z" fill="#4E91C3"/>
<path d="M73.6097 11.4761C72.9651 11.2931 72.2847 11.0624 71.5666 10.7858C70.8484 10.5093 70.184 10.1612 69.5752 9.74142C68.9645 9.32166 68.4592 8.8104 68.0573 8.20563C67.6555 7.60285 67.4545 6.87475 67.4545 6.0233C67.4545 5.17185 67.6475 4.39599 68.0315 3.72955C68.4174 3.06311 68.9167 2.50211 69.5315 2.04854C70.1462 1.59496 70.8285 1.24877 71.5745 1.01403C72.3225 0.77928 73.0586 0.659912 73.7827 0.659912C74.4492 0.659912 75.0878 0.729548 75.6965 0.866814C76.3053 1.00408 76.8722 1.209 77.3954 1.47956C77.9186 1.75011 78.3921 2.08433 78.8178 2.48022C79.2436 2.8761 79.6056 3.33363 79.904 3.85087C79.9717 3.96625 79.9896 4.08163 79.9557 4.19503C79.9199 4.31041 79.8622 4.39596 79.7827 4.45366C79.6892 4.53323 79.5778 4.57703 79.4465 4.58299C79.3152 4.58896 79.1859 4.53524 79.0586 4.41985C78.7144 3.92649 78.3404 3.50871 77.9365 3.16853C77.5347 2.83034 77.105 2.55583 76.6514 2.34893C76.1978 2.14204 75.7283 1.99479 75.2449 1.90924C74.7615 1.8237 74.2721 1.77995 73.7788 1.77995C73.2376 1.77995 72.6627 1.86351 72.054 2.03062C71.4432 2.19772 70.8802 2.45632 70.363 2.80645C69.8458 3.15658 69.4161 3.59626 69.0779 4.12543C68.7377 4.6546 68.5686 5.28124 68.5686 6.00537C68.5566 6.48879 68.6442 6.92049 68.8272 7.29847C69.0102 7.67844 69.249 8.01465 69.5434 8.30709C69.8358 8.59953 70.172 8.85613 70.552 9.07496C70.932 9.29379 71.3199 9.4828 71.7158 9.64394C72.1117 9.80508 72.4996 9.9463 72.8796 10.0657C73.2595 10.187 73.5977 10.2925 73.8981 10.384C74.7834 10.6943 75.6428 11.0246 76.4763 11.3767C77.3099 11.7268 78.0519 12.1406 78.7025 12.618C79.353 13.0955 79.8722 13.6625 80.2641 14.317C80.654 14.9735 80.851 15.7553 80.851 16.6624C80.851 17.675 80.652 18.5822 80.2561 19.3879C79.8603 20.1936 79.3331 20.8739 78.6766 21.433C78.0221 21.99 77.2701 22.4157 76.4266 22.7101C75.5811 23.0026 74.7098 23.1498 73.8126 23.1498C73.0307 23.1498 72.2708 23.0444 71.5367 22.8315C70.8007 22.6186 70.1223 22.3282 69.5016 21.9601C68.8809 21.5921 68.3378 21.1545 67.8723 20.6492C67.4068 20.1439 67.0527 19.5968 66.812 19.0099C66.7205 18.815 66.7065 18.6538 66.7682 18.5265C66.8319 18.4011 66.9254 18.3077 67.0527 18.25C67.3292 18.1246 67.5819 18.2221 67.8126 18.5424C68.0315 19.0596 68.3478 19.5351 68.7616 19.9648C69.1754 20.3965 69.6528 20.7645 70.1939 21.0689C70.735 21.3733 71.3199 21.61 71.9525 21.7771C72.5851 21.9442 73.2297 22.0278 73.8842 22.0278C74.5845 22.0278 75.2847 21.9164 75.979 21.6916C76.6753 21.4668 77.3019 21.1306 77.859 20.683C78.416 20.2353 78.8676 19.6744 79.2137 19.0019C79.5579 18.3295 79.7309 17.5497 79.7309 16.6644C79.7309 15.9164 79.5559 15.2758 79.2058 14.7407C78.8556 14.2055 78.3921 13.744 77.8172 13.3521C77.2422 12.9622 76.5897 12.618 75.8596 12.3256C75.1295 12.0332 74.3796 11.7467 73.6077 11.4722L73.6097 11.4761Z" fill="#35475A" stroke="#35475A" stroke-width="0.0497343" stroke-miterlimit="10"/>
<path d="M88.343 22.378C88.343 22.5391 88.2873 22.6704 88.1799 22.7739C88.0704 22.8773 87.9352 22.929 87.774 22.929C87.6248 22.929 87.4955 22.8773 87.3861 22.7739C87.2767 22.6704 87.223 22.5391 87.223 22.378V1.40207C87.223 1.24093 87.2767 1.10964 87.3861 1.00619C87.4955 0.902743 87.6248 0.851013 87.774 0.851013C87.9352 0.851013 88.0704 0.902743 88.1799 1.00619C88.2893 1.10964 88.343 1.24292 88.343 1.40207V22.378Z" fill="#35475A" stroke="#35475A" stroke-width="0.0497343" stroke-miterlimit="10"/>
<path d="M96.943 3.09303V22.378C96.943 22.5391 96.8873 22.6704 96.7799 22.7739C96.6705 22.8773 96.5352 22.929 96.3741 22.929C96.2249 22.929 96.0956 22.8773 95.9861 22.7739C95.8767 22.6704 95.823 22.5391 95.823 22.378V1.41994C95.823 1.2588 95.8767 1.1275 95.9861 1.02406C96.0956 0.920608 96.2249 0.868879 96.3741 0.868879C96.4198 0.868879 96.4775 0.880848 96.5471 0.902731C96.569 0.902731 96.5869 0.908668 96.5989 0.920604L96.6844 0.97233C96.754 1.01809 96.8057 1.05789 96.8396 1.0937L110.381 20.6552V1.42193C110.381 1.26079 110.435 1.12551 110.544 1.01609C110.654 0.906675 110.789 0.852997 110.95 0.852997C111.111 0.852997 111.243 0.908664 111.346 1.01609C111.45 1.12551 111.501 1.26079 111.501 1.42193V22.38C111.501 22.5411 111.446 22.6724 111.338 22.7759C111.229 22.8793 111.099 22.931 110.95 22.931H110.898C110.783 22.931 110.674 22.8912 110.57 22.8097C110.524 22.7639 110.495 22.7301 110.485 22.7062L96.943 3.09303Z" fill="#35475A" stroke="#35475A" stroke-width="0.0497343" stroke-miterlimit="10"/>
<path d="M137.12 4.0419C137.236 4.15729 137.293 4.28663 137.293 4.42987C137.293 4.5731 137.236 4.7024 137.12 4.81779C137.017 4.93317 136.886 4.99084 136.725 4.99084C136.563 4.99084 136.432 4.93317 136.329 4.81779C135.316 3.8052 134.192 3.04921 132.957 2.54988C131.721 2.05054 130.452 1.79993 129.153 1.79993C128.222 1.79993 127.321 1.92124 126.453 2.16196C125.586 2.40267 124.776 2.74288 124.03 3.18054C123.282 3.6182 122.604 4.14737 121.995 4.76805C121.386 5.38874 120.863 6.07309 120.426 6.8211C119.988 7.5691 119.652 8.37278 119.417 9.23617C119.18 10.0996 119.063 10.9948 119.063 11.9278C119.063 12.8608 119.178 13.7123 119.407 14.5577C119.638 15.4032 119.964 16.199 120.39 16.947C120.816 17.695 121.331 18.3793 121.934 19C122.538 19.6207 123.213 20.1558 123.961 20.6034C124.709 21.051 125.516 21.4031 126.384 21.6558C127.251 21.9084 128.168 22.0358 129.135 22.0358C130.446 22.0358 131.713 21.803 132.939 21.3375C134.164 20.872 135.282 20.1339 136.295 19.1213C136.42 18.996 136.559 18.9324 136.709 18.9324C136.858 18.9324 136.985 18.9841 137.089 19.0875C137.204 19.191 137.258 19.3223 137.252 19.4834C137.246 19.6446 137.192 19.7759 137.089 19.8793C135.973 21.0073 134.731 21.8349 133.362 22.364C131.994 22.8932 130.585 23.1578 129.137 23.1578C128.103 23.1578 127.104 23.0225 126.145 22.7519C125.184 22.4814 124.291 22.1054 123.463 21.622C122.636 21.1386 121.882 20.5557 121.203 19.8713C120.525 19.187 119.944 18.4291 119.461 17.5955C118.977 16.762 118.603 15.8687 118.339 14.9138C118.074 13.9589 117.943 12.9643 117.943 11.9298C117.943 10.8953 118.07 9.97821 118.323 9.04122C118.575 8.10422 118.936 7.21893 119.401 6.38539C119.867 5.55184 120.434 4.78398 121.1 4.08173C121.766 3.37948 122.516 2.77668 123.352 2.27138C124.186 1.76608 125.091 1.3722 126.069 1.08971C127.046 0.807218 128.083 0.667938 129.175 0.667938C130.623 0.667938 132.032 0.952426 133.4 1.52139C134.769 2.09035 136.01 2.93383 137.126 4.04788L137.12 4.0419Z" fill="#35475A" stroke="#35475A" stroke-width="0.0497343" stroke-miterlimit="10"/>
<path d="M153.485 0.695831C154.519 0.695831 155.514 0.827128 156.469 1.09171C157.424 1.3563 158.317 1.73228 159.151 2.22166C159.984 2.71105 160.744 3.29394 161.427 3.97232C162.111 4.65069 162.698 5.40664 163.185 6.24018C163.675 7.07373 164.053 7.96894 164.323 8.92185C164.594 9.87675 164.729 10.8714 164.729 11.9059C164.729 12.9404 164.594 13.939 164.323 14.8979C164.053 15.8588 163.673 16.752 163.185 17.5796C162.696 18.4072 162.109 19.1671 161.427 19.8574C160.742 20.5477 159.984 21.1346 159.151 21.616C158.317 22.0995 157.422 22.4754 156.469 22.746C155.514 23.0165 154.519 23.1518 153.485 23.1518C151.921 23.1518 150.457 22.8594 149.094 22.2725C147.732 21.6857 146.544 20.8839 145.533 19.8654C144.521 18.8468 143.725 17.6552 143.144 16.2865C142.563 14.9178 142.273 13.4576 142.273 11.9059C142.273 10.3542 142.563 8.89599 143.144 7.53327C143.725 6.17055 144.521 4.98292 145.533 3.97232C146.544 2.95973 147.734 2.16198 149.094 1.57512C150.457 0.988253 151.921 0.695831 153.485 0.695831ZM153.485 1.81582C152.082 1.81582 150.767 2.08041 149.544 2.60958C148.319 3.13875 147.25 3.85693 146.335 4.76608C145.42 5.67522 144.702 6.74349 144.179 7.97491C143.655 9.20633 143.393 10.5173 143.393 11.9079C143.393 13.2985 143.654 14.6274 144.179 15.8588C144.702 17.0902 145.42 18.1625 146.335 19.0756C147.25 19.9907 148.319 20.7109 149.544 21.2401C150.769 21.7692 152.082 22.0338 153.485 22.0338C154.887 22.0338 156.187 21.7692 157.418 21.2401C158.647 20.7109 159.72 19.9887 160.635 19.0756C161.55 18.1605 162.27 17.0882 162.799 15.8588C163.328 14.6294 163.593 13.3124 163.593 11.9079C163.593 10.5034 163.328 9.20633 162.799 7.97491C162.27 6.74548 161.548 5.67522 160.635 4.76608C159.72 3.85693 158.647 3.13875 157.418 2.60958C156.187 2.08041 154.876 1.81582 153.485 1.81582Z" fill="#35475A" stroke="#35475A" stroke-width="0.0497343" stroke-miterlimit="10"/>
<path d="M145.116 34.6842C145.06 34.6802 145.016 34.6584 144.984 34.6166C144.952 34.5748 144.937 34.5271 144.937 34.4714V27.2599C144.937 27.2002 144.956 27.1544 144.998 27.1206C145.04 27.0868 145.088 27.0709 145.143 27.0709H148.724C148.78 27.0709 148.826 27.0888 148.862 27.1246C148.897 27.1604 148.915 27.2062 148.915 27.2619C148.915 27.3176 148.897 27.3633 148.862 27.4011C148.826 27.4389 148.78 27.4568 148.724 27.4568H145.321V30.6876H147.867C147.923 30.6876 147.968 30.7055 148.006 30.7413C148.044 30.7771 148.062 30.8228 148.062 30.8785C148.062 30.9342 148.042 30.978 148.006 31.0118C147.968 31.0456 147.923 31.0635 147.867 31.0635H145.321V34.3003H148.724C148.78 34.3003 148.826 34.3182 148.862 34.354C148.897 34.3898 148.915 34.4335 148.915 34.4853C148.915 34.5449 148.897 34.5927 148.862 34.6305C148.826 34.6683 148.78 34.6862 148.724 34.6862H145.114L145.116 34.6842Z" fill="#35475A" stroke="#35475A" stroke-width="0.149203" stroke-miterlimit="10"/>
<path d="M155.886 29.1816C155.886 29.4761 155.834 29.7446 155.731 29.9913C155.627 30.238 155.484 30.4509 155.303 30.6339C155.12 30.8169 154.905 30.9641 154.655 31.0735C154.404 31.1849 154.135 31.2506 153.845 31.2705L155.85 34.3938C155.882 34.4535 155.888 34.5092 155.868 34.5629C155.848 34.6166 155.81 34.6524 155.755 34.6723C155.707 34.6922 155.661 34.6922 155.615 34.6763C155.57 34.6584 155.534 34.6285 155.506 34.5848L153.405 31.2765H151.863V34.4952C151.863 34.5509 151.844 34.5967 151.808 34.6325C151.77 34.6683 151.724 34.6862 151.669 34.6862C151.617 34.6862 151.573 34.6683 151.535 34.6325C151.497 34.5967 151.48 34.5509 151.48 34.4952V27.2599C151.48 27.2042 151.499 27.1584 151.535 27.1226C151.571 27.0868 151.617 27.0689 151.669 27.0689H153.674C153.982 27.0689 154.273 27.1206 154.543 27.2261C154.814 27.3315 155.048 27.4787 155.249 27.6657C155.45 27.8547 155.605 28.0775 155.719 28.3362C155.832 28.5948 155.888 28.8753 155.888 29.1816H155.886ZM151.863 27.4509V30.8965H153.684C153.95 30.8965 154.193 30.8507 154.416 30.7592C154.639 30.6677 154.83 30.5424 154.991 30.3852C155.152 30.2261 155.277 30.043 155.365 29.8342C155.454 29.6253 155.498 29.4044 155.498 29.1717C155.498 28.9389 155.452 28.7042 155.361 28.4933C155.269 28.2825 155.142 28.1014 154.981 27.9463C154.818 27.7911 154.625 27.6697 154.4 27.5842C154.175 27.4966 153.93 27.4529 153.666 27.4529H151.863V27.4509Z" fill="#35475A" stroke="#35475A" stroke-width="0.149203" stroke-miterlimit="10"/>
<path d="M158.926 31.2765V34.4952C158.926 34.5509 158.906 34.5967 158.87 34.6325C158.832 34.6683 158.787 34.6862 158.731 34.6862C158.679 34.6862 158.635 34.6683 158.598 34.6325C158.56 34.5967 158.542 34.5509 158.542 34.4952V27.2599C158.542 27.2042 158.562 27.1584 158.598 27.1226C158.633 27.0868 158.679 27.0689 158.731 27.0689H160.736C161.044 27.0689 161.335 27.1206 161.605 27.2261C161.876 27.3315 162.111 27.4787 162.312 27.6657C162.513 27.8547 162.668 28.0775 162.781 28.3362C162.895 28.5948 162.95 28.8753 162.95 29.1816C162.95 29.488 162.895 29.7685 162.781 30.0231C162.668 30.2798 162.511 30.5006 162.312 30.6856C162.111 30.8726 161.876 31.0178 161.605 31.1193C161.335 31.2227 161.046 31.2745 160.736 31.2745H158.928L158.926 31.2765ZM158.926 27.4509V30.8965H160.746C161.013 30.8965 161.255 30.8507 161.478 30.7592C161.701 30.6677 161.892 30.5424 162.053 30.3852C162.214 30.2261 162.34 30.043 162.427 29.8342C162.517 29.6253 162.56 29.4044 162.56 29.1717C162.56 28.9389 162.515 28.7042 162.423 28.4933C162.332 28.2825 162.204 28.1014 162.043 27.9463C161.88 27.7911 161.687 27.6697 161.462 27.5842C161.237 27.4966 160.993 27.4529 160.728 27.4529H158.926V27.4509Z" fill="#35475A" stroke="#35475A" stroke-width="0.149203" stroke-miterlimit="10"/>
</g>
<defs>
<filter id="filter0_d_185_94693" x="0.968475" y="0.566345" width="167.785" height="42.196" filterUnits="userSpaceOnUse" color-interpolation-filters="sRGB">
<feFlood flood-opacity="0" result="BackgroundImageFix"/>
<feColorMatrix in="SourceAlpha" type="matrix" values="0 0 0 0 0 0 0 0 0 0 0 0 0 0 0 0 0 0 127 0" result="hardAlpha"/>
<feOffset dy="4"/>
<feGaussianBlur stdDeviation="2"/>
<feComposite in2="hardAlpha" operator="out"/>
<feColorMatrix type="matrix" values="0 0 0 0 0 0 0 0 0 0 0 0 0 0 0 0 0 0 0.25 0"/>
<feBlend mode="normal" in2="BackgroundImageFix" result="effect1_dropShadow_185_94693"/>
<feBlend mode="normal" in="SourceGraphic" in2="effect1_dropShadow_185_94693" result="shape"/>
</filter>
</defs>
</svg>
